<?xml version="1.0" encoding="UTF-8" standalone="no"?>
<!-- Created with Inkscape (http://www.inkscape.org/) -->

<svg
   width="100mm"
   height="100mm"
   viewBox="0 0 100 100"
   version="1.1"
   id="svg123"
   inkscape:version="1.2.2 (732a01da63, 2022-12-09)"
   sodipodi:docname="icon3.svg"
   xmlns:inkscape="http://www.inkscape.org/namespaces/inkscape"
   xmlns:sodipodi="http://sodipodi.sourceforge.net/DTD/sodipodi-0.dtd"
   xmlns="http://www.w3.org/2000/svg"
   xmlns:svg="http://www.w3.org/2000/svg">
  <sodipodi:namedview
     id="namedview125"
     pagecolor="#ffffff"
     bordercolor="#000000"
     borderopacity="0.25"
     inkscape:showpageshadow="2"
     inkscape:pageopacity="0.0"
     inkscape:pagecheckerboard="0"
     inkscape:deskcolor="#d1d1d1"
     inkscape:document-units="mm"
     showgrid="false"
     inkscape:zoom="1.829812"
     inkscape:cx="147.55614"
     inkscape:cy="162.0385"
     inkscape:window-width="2560"
     inkscape:window-height="1361"
     inkscape:window-x="-9"
     inkscape:window-y="-9"
     inkscape:window-maximized="1"
     inkscape:current-layer="layer1" />
  <defs
     id="defs120" />
  <g
     inkscape:label="图层 1"
     inkscape:groupmode="layer"
     id="layer1">
    <g
       id="g193"
       style="display:inline"
       transform="matrix(0.37907778,0,0,0.37907778,-5.6213877,16.912525)">
      <path
         style="display:none;fill:#fdfdfd;stroke-width:0.8"
         d="M 0,99.6 C 0,0 0,0 372.39999,0 c 372.4,0 372.4,0 372.4,99.6 0,99.6 0,99.6 -372.4,99.6 C 0,199.2 0,199.2 0,99.6 Z m 581.19999,55.19126 c 11.94881,-2.51982 22.26898,-10.03001 26.62653,-19.37664 1.93995,-4.16106 2.1525,-5.51888 2.16244,-13.81462 0.01,-8.23356 -0.2059,-9.66241 -2.05401,-13.60188 -2.59176,-5.52466 -7.9411,-10.926472 -14.03153,-14.169168 -2.58688,-1.37732 -10.46343,-4.458696 -17.50343,-6.847496 -14.99849,-5.089264 -18.6521,-6.823976 -21.49937,-10.207756 -2.4568,-2.919744 -2.86059,-8.132695 -0.85207,-11.000264 4.30184,-6.141735 17.19107,-5.750466 33.57618,1.019246 3.5336,1.459953 7.73951,3.430199 9.34646,4.378324 3.43619,2.0274 2.52181,3.123894 8.54381,-10.245424 2.24809,-4.990931 3.85689,-9.447447 3.57511,-9.903369 -0.9623,-1.557047 -15.07743,-7.716684 -21.89012,-9.552535 -5.69148,-1.533712 -8.82142,-1.83497 -19.2,-1.848005 -11.53579,-0.01449 -12.83858,0.139323 -18.69303,2.206953 -13.83194,4.885061 -21.63472,13.599602 -23.68865,26.456696 -1.59519,9.985491 1.11166,19.118334 7.58502,25.591694 4.86299,4.862992 12.42304,8.536044 27.19666,13.213474 14.39691,4.55817 19.90758,7.53558 21.64552,11.69506 3.71802,8.89846 -2.11302,15.17215 -14.04552,15.11177 -10.59004,-0.0536 -23.73862,-4.91199 -34.26461,-12.66079 -4.99718,-3.67871 -4.99718,-3.67871 -9.76254,6.14238 -2.62094,5.4016 -4.76704,10.24344 -4.7691,10.75965 -0.007,1.81679 12.87136,9.59862 21.75672,13.14639 10.96432,4.37787 28.75552,5.92811 40.23953,3.50631 z M 231.06666,154.48091 C 230.92,154.08542 221.44,128.16709 210,96.884632 189.2,40.007442 189.2,40.007442 176.51441,40.003721 c -9.8158,-0.0029 -12.601,0.222504 -12.31162,0.996279 0.20568,0.55 9.67809,26.47 21.04979,57.6 20.67583,56.6 20.67583,56.6 33.37829,56.6 7.17988,0 12.58653,-0.31263 12.43579,-0.71909 z m 120.91244,-0.12568 c 16.66842,-2.09004 26.81221,-8.72637 31.47228,-20.58997 1.84428,-4.69516 1.95068,-13.68478 0.23194,-19.59702 -2.49038,-8.56662 -9.77694,-16.141088 -17.55542,-18.249096 -5.7962,-1.570792 -5.8735,-1.686328 -1.97522,-2.952136 C 378.5232,88.300768 385.4273,71.279007 378.69977,57.10178 375.61884,50.609208 367.60056,44.911519 357.803,42.252796 352.15346,40.719701 348.90541,40.53647 321.4,40.199198 291.2,39.828887 291.2,39.828887 291.2,97.51444 c 0,57.68556 0,57.68556 27.02098,57.68556 14.86154,0 30.0527,-0.38014 33.75812,-0.84477 z M 316.8,120.44515 c 0,-14.16749 0,-14.16749 15.4,-13.90632 14.13108,0.23965 15.67579,0.4086 18.74713,2.05046 5.61826,3.00337 8.12609,8.45029 6.73703,14.63257 -0.9295,4.13688 -3.41878,6.91452 -8.08416,9.02065 -3.06775,1.38491 -5.7586,1.68026 -18.2,1.99767 -14.6,0.37247 -14.6,0.37247 -14.6,-13.79503 z m 0,-46.420729 c 0,-13.353993 0,-13.353993 14.2,-13.085666 12.79076,0.241698 14.52649,0.442651 17.48991,2.024882 8.26545,4.413109 7.98085,17.230283 -0.49263,22.185771 -2.46898,1.44392 -4.46387,1.67072 -16.99728,1.932464 -14.2,0.296544 -14.2,0.296544 -14.2,-13.057451 z M 425.93318,138.6 C 437.82845,106.26398 452.40696,68.889934 452.91,69.441149 453.19051,69.748517 460.54092,89.17 469.24425,112.6 c 15.82422,42.6 15.82422,42.6 29.28998,42.6 10.4614,0 13.46576,-0.23023 13.46576,-1.03192 0,-0.56755 -5.35379,-14.51755 -11.89732,-31 C 463.08927,29.935242 468.70739,39.936414 453.48521,40.18139 439.90135,40.4 439.90135,40.4 416.75067,97.512712 404.0178,128.92471 393.59999,154.75471 393.59999,154.91271 c 0,0.15801 5.901,0.28729 13.11332,0.28729 13.11332,0 13.11332,0 19.21987,-16.6 z m 288.29003,6 c -0.22322,-10.6 -0.22322,-10.6 -30.02322,-10.80974 -29.8,-0.20973 -29.8,-0.20973 -29.8,-36.199996 0,-35.990264 0,-35.990264 29.2,-35.990264 29.2,0 29.2,0 29.2,-10.4 0,-10.4 0,-10.4 -42,-10.4 -42,0 -42,0 -42,57.2 0,57.2 0,57.2 42.82322,57.2 42.82322,0 42.82322,0 42.6,-10.6 z M 52.992389,115.4 c 0.20761,-39 0.20761,-39 13.88522,-5.8 13.677606,33.2 13.677606,33.2 22.31335,33.2 8.635736,0 8.635736,0 30.896041,-47.2 12.24317,-25.96 23.16825,-49.09 24.27796,-51.4 2.01765,-4.2 2.01765,-4.2 -8.77187,-4.2 -10.78953,0 -10.78953,0 -28.43695,35.287698 C 97.450063,94.695928 89.337647,110.40431 89.128551,110.19522 88.919447,109.98612 82.000567,94.196656 73.753253,75.107519 58.758135,40.4 58.758135,40.4 44.179067,40.181953 29.6,39.963906 29.6,39.963906 29.6,97.181952 29.6,154.4 29.6,154.4 41.192389,154.4 c 11.59239,0 11.59239,0 11.8,-39 z M 148.8,114 c 0,-22.22 -0.23292,-40.4 -0.51761,-40.4 -0.28468,0 -2.0524,1.257649 -3.92826,2.794775 -4.9572,4.062049 -10.42097,11.684377 -14.8626,20.734305 -3.89153,7.92907 -3.89153,7.92907 -3.89153,32.6 0,24.67092 0,24.67092 11.6,24.67092 11.6,0 11.6,0 11.6,-40.4 z M 257.86258,88.2 c 9.55116,-25.85 17.35937,-47.27 17.35158,-47.6 -0.008,-0.33 -5.86416,-0.597091 -13.01416,-0.593535 -13,0.0065 -13,0.0065 -24.90044,36.411357 -13.16189,40.263878 -12.91247,38.925258 -8.82529,47.363708 1.91983,3.96371 9.2061,11.41847 11.16041,11.41847 0.47418,0 8.67674,-21.15 18.2279,-47 z M 706.79999,98 c 0,-10.4 0,-10.4 -17,-10.615912 -9.35,-0.118752 -17,-0.03968 -17,0.175784 0,0.840912 -2.46957,17.743588 -2.84246,19.454918 -0.39544,1.81479 -0.39544,1.81479 18.22351,1.6 C 706.79999,108.4 706.79999,108.4 706.79999,98 Z"
         id="path209" />
      <path
         style="display:none;fill:#a7a7a7;stroke-width:0.8"
         d="m 209.6,154.65948 c 10.71965,-0.57981 21.60324,-0.60978 21.60168,-0.0595 -8e-4,0.33 -5.85168,0.53193 -13.00168,0.44874 -7.15,-0.0832 -11.02,-0.25837 -8.6,-0.38926 z m 95.85197,-0.0585 c 8.05859,-0.1306 21.01859,-0.13039 28.8,4.7e-4 7.78141,0.13086 1.18803,0.23771 -14.65197,0.23746 -15.84,-2.7e-4 -22.20662,-0.10733 -14.14803,-0.23793 z m 94.7873,0.003 c 3.87161,-0.14697 9.99161,-0.14622 13.6,0.002 3.6084,0.14788 0.44072,0.26813 -7.03928,0.26721 -7.48,-8e-4 -10.43232,-0.12192 -6.56072,-0.26888 z m 91.16072,5.7e-4 c 3.85,-0.14665 10.15,-0.14665 14,0 3.85,0.14665 0.7,0.26664 -7,0.26664 -7.7,0 -10.85,-0.11999 -7,-0.26664 z M 125.8884,147.2 c 0,-4.18 0.13483,-5.89 0.29963,-3.8 0.1648,2.09 0.1648,5.51 0,7.6 -0.1648,2.09 -0.29963,0.38 -0.29963,-3.8 z m 21.92606,-33.20018 C 147.69651,91.779712 147.87,73.599712 148.2,73.599814 148.53,73.599916 148.8,91.78 148.8,114 c 0,22.22 -0.17349,40.4 -0.38554,40.4 -0.21205,0 -0.48205,-18.18008 -0.6,-40.40018 z m 226.58553,32.14985 c 0,-0.13768 1.17,-1.30768 2.6,-2.6 2.6,-2.34967 2.6,-2.34967 0.25033,0.25033 -2.19022,2.42357 -2.85033,2.96772 -2.85033,2.34967 z m -32.58477,-12.30406 c 0.77838,-0.20283 1.85838,-0.1895 2.4,0.0297 0.54162,0.21914 -0.0952,0.38509 -1.41522,0.36879 -1.32,-0.0163 -1.76316,-0.1956 -0.98478,-0.39843 z m 347.58477,-0.0423 c 4.51,-0.1426 11.89,-0.1426 16.4,0 4.51,0.1426 0.82,0.25927 -8.2,0.25927 -9.02,0 -12.71,-0.11667 -8.2,-0.25927 z M 706.71082,98 c 0.002,-5.72 0.12883,-7.955032 0.28317,-4.966728 0.15434,2.988296 0.15319,7.668298 -0.002,10.399998 -0.15574,2.7317 -0.28202,0.28673 -0.28062,-5.43327 z m -105.21288,1.4 c -0.99509,-1.268848 -0.9668,-1.297144 0.30205,-0.302048 0.77,0.60388 1.4,1.233878 1.4,1.399998 0,0.65843 -0.65695,0.23465 -1.70205,-1.09795 z m -68.8,-5.6 c -0.99509,-1.268848 -0.9668,-1.297144 0.30205,-0.302048 1.3326,1.045096 1.75639,1.702048 1.09795,1.702048 -0.16612,0 -0.79612,-0.63 -1.4,-1.4 z M 372,88.549672 c 0,-0.13768 1.16999,-1.30768 2.59999,-2.6 C 377.19999,83.6 377.19999,83.6 374.85032,86.2 372.6601,88.623568 372,89.16772 372,88.549672 Z m -29.75,-1.89616 c 0.57749,-0.231096 1.2675,-0.20268 1.53333,0.06312 0.26583,0.26584 -0.20667,0.454912 -1.05,0.420176 -0.93196,-0.0384 -1.12152,-0.227952 -0.48333,-0.483328 z M 141.6,78.8 c 1.49262,-1.54 2.89386,-2.8 3.11386,-2.8 0.22,0 -0.82124,1.26 -2.31386,2.8 -1.49263,1.54 -2.89387,2.8 -3.11387,2.8 -0.22,0 0.82124,-1.26 2.31387,-2.8 z m 383.38559,-5.2 c 0,-1.54 0.16464,-2.17 0.36587,-1.4 0.20121,0.77 0.20121,2.03 0,2.8 -0.20123,0.77 -0.36587,0.14 -0.36587,-1.4 z m -170.45928,0 c 0,-1.1 0.18158,-1.55 0.40351,-1 0.22193,0.55 0.22193,1.45 0,2 -0.22193,0.55 -0.40351,0.1 -0.40351,-1 z m 26.33684,-2.066666 c 0.0384,-0.931955 0.22796,-1.12152 0.48333,-0.483334 0.2311,0.5775 0.20268,1.2675 -0.0631,1.533334 -0.26583,0.265832 -0.45491,-0.206668 -0.42017,-1.05 z m 171.2,-0.8 c 0.0384,-0.931955 0.22795,-1.12152 0.48333,-0.483334 0.2311,0.5775 0.20268,1.2675 -0.0631,1.533334 -0.26583,0.265832 -0.45491,-0.206668 -0.42018,-1.05 z m 10.13684,-9.663159 c 0.55,-0.221929 1.45,-0.221929 2,0 0.55,0.221931 0.1,0.403509 -1,0.403509 -1.1,0 -1.55,-0.181578 -1,-0.403509 z m 4,0 c 0.55,-0.221929 1.45,-0.221929 2,0 0.55,0.221931 0.1,0.403509 -1,0.403509 -1.1,0 -1.55,-0.181578 -1,-0.403509 z M 712.31337,51.2 c 0,-5.94 0.12593,-8.37 0.27986,-5.4 0.15393,2.97 0.15393,7.83 0,10.8 -0.15393,2.97 -0.27986,0.54 -0.27986,-5.4 z M 163.99831,40.6 c 8e-4,-0.33 5.85169,-0.53193 13.00169,-0.448733 13.07916,0.152189 11.52674,0.447735 -4.40169,0.837988 -4.73093,0.11591 -8.60093,-0.05926 -8.6,-0.389255 z m 275.89968,-0.01998 c 0.34208,-0.340988 6.71497,-0.52006 14.16198,-0.397938 13.54002,0.22204 13.54002,0.22204 -0.62196,0.619977 -7.78909,0.218867 -13.8821,0.118948 -13.54002,-0.222039 z M 255.43928,40.203773 c 3.8716,-0.146967 9.9916,-0.146214 13.6,0.0017 3.6084,0.147885 0.44072,0.26813 -7.03928,0.26721 -7.48,-8.8e-4 -10.43232,-0.121917 -6.56072,-0.268882 z M 304.2,40.201373 c 7.37,-0.132024 19.43,-0.132024 26.8,0 7.37,0.132024 1.34,0.240043 -13.4,0.240043 -14.74,0 -20.77,-0.108019 -13.4,-0.240043 z m 254.84999,-0.747849 c 0.5775,-0.231097 1.26751,-0.202675 1.53334,0.06316 0.26583,0.265834 -0.20667,0.454913 -1.05,0.420176 -0.93196,-0.03838 -1.12152,-0.227953 -0.48334,-0.483334 z"
         id="path207" />
      <path
         style="display:none;fill:#e59b51;stroke-width:0.8"
         d="M 232.75693,129.8 C 230,126.8 230,126.8 233,129.55694 c 1.65,1.51631 3,2.86631 3,3 0,0.61089 -0.67698,0.0354 -3.24307,-2.75694 z m -7.03062,-14.6 c 0,-1.1 0.18158,-1.55 0.40351,-1 0.22193,0.55 0.22193,1.45 0,2 -0.22193,0.55 -0.40351,0.1 -0.40351,-1 z"
         id="path205" />
      <path
         style="display:none;fill:#807f7f;stroke-width:0.8"
         d="M 29.991948,97.400056 C 30,40.4 30,40.4 43.999999,40.372314 c 14,-0.02769 14,-0.02769 0.205325,0.218438 C 30.41065,40.836876 30.41065,40.836876 30.197272,97.618496 29.983895,154.40011 29.983895,154.40011 29.991948,97.400056 Z M 713.91082,144.4 c 0.002,-5.72 0.12883,-7.95503 0.28317,-4.96673 0.15434,2.9883 0.15319,7.6683 -0.002,10.4 -0.15574,2.7317 -0.28202,0.28673 -0.28062,-5.43327 z M 125.93346,125.2 c 7.7e-4,-8.36 0.11932,-11.6713 0.26344,-7.35845 0.14412,4.31286 0.14349,11.15286 -0.002,15.2 -0.14489,4.04715 -0.26281,0.51845 -0.26204,-7.84155 z m 535.06653,8.60434 c 3.85,-0.14664 10.15,-0.14664 14,0 3.85,0.14666 0.7,0.26664 -7,0.26664 -7.7,0 -10.85,-0.11998 -7,-0.26664 z m 18.44514,-25.60215 c 5.19482,-0.13956 13.47482,-0.1391 18.4,8e-4 4.92517,0.14013 0.67486,0.25431 -9.44514,0.25375 -10.12,-5.6e-4 -14.14969,-0.1152 -8.95486,-0.25477 z M 554.72398,77.4 c -1.52399,-1.8 -1.52399,-1.8 0.27601,-0.27601 0.99,0.838195 1.8,1.648195 1.8,1.8 0,0.640203 -0.64383,0.167566 -2.07601,-1.52399 z M 380.86315,69.133334 c 0.0384,-0.931955 0.22796,-1.12152 0.48333,-0.483334 0.2311,0.5775 0.20268,1.2675 -0.0631,1.533334 -0.26583,0.265832 -0.45491,-0.206668 -0.42017,-1.05 z M 129.8,40.20676 c 2.97,-0.153926 7.83,-0.153926 10.8,0 2.97,0.153925 0.54,0.279863 -5.4,0.279863 -5.94,0 -8.37,-0.125938 -5.4,-0.279863 z"
         id="path203" />
      <path
         style="display:inline;fill:#dc730a;stroke-width:0.8"
         d="m 235.29061,131.52955 c -5.05493,-4.54482 -7.73629,-9.0048 -8.71693,-14.49906 -0.72453,-4.05945 -0.43435,-5.11538 10.9925,-40.000004 C 249.30287,41.2 249.30287,41.2 262.13861,40.980724 c 12.83575,-0.219277 12.83575,-0.219277 -4.47489,46.556796 -9.52086,25.72684 -17.52006,46.98548 -17.77601,47.24143 -0.25595,0.25595 -2.32465,-1.20628 -4.5971,-3.2494 z"
         id="path201" />
      <path
         style="display:none;fill:#5f5e5e;stroke-width:0.8"
         d="m 52.371265,114.4 c 0,-22.22 0.102647,-31.31 0.228104,-20.2 0.125457,11.11 0.125457,29.29 0,40.4 -0.125457,11.11 -0.228104,2.02 -0.228104,-20.2 z m 32.657942,28.20794 c 2.546064,-0.15924 6.506064,-0.15776 8.8,0.003 2.293936,0.16104 0.210792,0.29133 -4.629208,0.28952 -4.84,-0.002 -6.716856,-0.13356 -4.170792,-0.2928 z M 653.96842,97.6 c 0,-20.02 0.10386,-28.21 0.2308,-18.2 0.12695,10.01 0.12695,26.39 0,36.4 -0.12694,10.01 -0.2308,1.82 -0.2308,-18.2 z m -528.16668,10 c 0.009,-1.76 0.17271,-2.3858 0.36407,-1.39067 0.19135,0.99513 0.18408,2.43513 -0.0162,3.2 -0.20024,0.76487 -0.3568,-0.0494 -0.34792,-1.80933 z M 322.6,105.80535 c 3.41,-0.14996 8.99,-0.14996 12.4,0 3.41,0.14996 0.62,0.27266 -6.2,0.27266 -6.82,0 -9.61,-0.1227 -6.2,-0.27266 z M 681.84347,87.402592 c 4.75391,-0.141688 12.31391,-0.141152 16.8,8e-4 4.48609,0.142336 0.59652,0.258256 -8.64348,0.2576 -9.24,-6.56e-4 -12.91043,-0.117104 -8.15652,-0.258784 z"
         id="path199" />
      <path
         style="display:none;fill:#403f3f;stroke-width:0.8"
         d="m 563.04999,155.45351 c 0.5775,-0.23109 1.26751,-0.20268 1.53334,0.0631 0.26583,0.26583 -0.20667,0.45491 -1.05,0.42018 -0.93196,-0.0384 -1.12152,-0.22795 -0.48334,-0.48333 z m 86.75,-0.85294 c 11.77,-0.12469 31.03,-0.12469 42.8,0 11.77,0.12468 2.14,0.22669 -21.4,0.22669 -23.54,0 -33.17,-0.10201 -21.4,-0.22669 z M 291.57914,97.6 c 0,-31.46 0.0992,-44.33 0.22053,-28.6 0.12129,15.73 0.12129,41.47 0,57.2 -0.12129,15.73 -0.22053,2.86 -0.22053,-28.6 z m 49.87086,8.25351 c 0.57749,-0.23109 1.2675,-0.20268 1.53333,0.0631 0.26583,0.26583 -0.20667,0.45491 -1.05,0.42018 -0.93196,-0.0384 -1.12152,-0.22795 -0.48333,-0.48333 z M 571.84999,39.453509 c 0.5775,-0.231097 1.26751,-0.202675 1.53334,0.06316 0.26583,0.265833 -0.20667,0.454913 -1.05,0.420176 -0.93196,-0.03838 -1.12152,-0.227953 -0.48334,-0.483334 z"
         id="path197" />
      <path
         style="display:inline;fill:#010000;stroke-width:0.8"
         d="m 559.28865,155.15249 c -12.36989,-1.53044 -26.02746,-6.73303 -35.44307,-13.50137 -4.55443,-3.2739 -4.55443,-3.2739 -3.30662,-6.26251 0.6863,-1.64374 2.83517,-6.15011 4.77528,-10.01415 3.52746,-7.02554 3.52746,-7.02554 8.63179,-3.38316 6.26629,4.47152 16.70457,9.4253 23.65396,11.22563 3.56171,0.9227 7.23583,1.24273 11.66179,1.01577 9.95892,-0.5107 13.93821,-3.70136 13.93821,-11.17592 0,-7.33372 -5.19587,-11.06204 -23.2,-16.64728 -22.45429,-6.965764 -30.09589,-12.621092 -33.21025,-24.577932 -6.79028,-26.069628 15.69428,-45.50459 48.41025,-41.844322 10.38558,1.16194 18.2467,3.40512 26.9365,7.686361 8.26353,4.07123 8.17473,2.008947 0.78161,18.153215 -2.85152,6.226823 -2.85152,6.226823 -8.51562,3.374431 -13.40169,-6.748983 -28.40831,-9.902467 -35.57324,-7.475347 -8.03418,2.721581 -9.01758,12.29298 -1.82654,17.777849 3.10177,2.365837 3.7622,2.635037 20.19729,8.232629 19.73399,6.721152 27.06631,11.88992 30.92523,21.800136 2.51412,6.45656 2.45676,17.81032 -0.12359,24.46348 -2.35884,6.08202 -9.64057,13.59156 -16.1522,16.6575 -8.74709,4.1185 -21.44056,5.87082 -32.56078,4.49499 z M 30.4,97.581544 c 0,-56.818463 0,-56.818463 14.121082,-56.600003 C 58.642164,41.2 58.642164,41.2 73.571607,75.783858 c 8.211192,19.021126 15.156168,34.810592 15.43328,35.087702 0.277112,0.2771 8.445176,-15.375632 18.151253,-34.783862 C 124.80356,40.8 124.80356,40.8 135.19138,40.8 c 10.38783,0 10.38783,0 8.77495,3.4 -0.88709,1.87 -11.6314,24.64 -23.87626,50.6 C 97.826695,142 97.826695,142 89.260119,142 c -8.566568,0 -8.566568,0 -22.052592,-32.8 -7.417314,-18.04 -13.852193,-33.34 -14.299731,-34 -0.557018,-0.821455 -0.828545,11.481248 -0.860751,39 -0.04705,40.2 -0.04705,40.2 -10.847046,40.2 C 30.4,154.4 30.4,154.4 30.4,97.581544 Z m 96,31.600696 c 0,-25.21775 0,-25.21775 3.30474,-31.8 C 134.78052,87.272544 140.46022,79.659846 145.723,75.912414 148,74.29105 148,74.29105 148,114.34553 148,154.4 148,154.4 137.2,154.4 c -10.8,0 -10.8,0 -10.8,-25.21776 z m 79.2,24.32266 c 0,-0.65658 -36.59479,-101.404595 -40.43712,-111.326242 -0.51483,-1.329391 0.23813,-1.407023 11.63898,-1.2 C 188.99129,41.2 188.99129,41.2 207.29139,91.2 c 10.06505,27.5 19.3752,52.97 20.68922,56.6 2.38912,6.6 2.38912,6.6 -9.99574,6.6 -8.60046,0 -12.38487,-0.27351 -12.38487,-0.8951 z M 292,97.6 c 0,-56.8 0,-56.8 27.92962,-56.8 31.69247,0 36.80802,0.576746 46.22716,5.211822 10.27449,5.055984 15.10015,13.199167 14.45248,24.388178 -0.4243,7.33005 -3.00077,12.898512 -7.9138,17.10388 -2.92267,2.501704 -10.42592,6.09612 -12.72547,6.09612 -0.4235,0 -0.76999,0.36 -0.76999,0.8 0,0.44 0.88649,0.8 1.96999,0.8 4.25137,0 11.13334,3.398992 15.28218,7.54782 5.45203,5.45204 7.76654,11.34846 7.87101,20.05218 0.0958,7.97805 -1.22979,12.65078 -5.01515,17.67904 -5.06653,6.7301 -13.67396,11.37181 -24.27875,13.09273 C 352.26318,154.02065 336.95,154.39063 321,154.39396 292,154.4 292,154.4 292,97.6 Z m 58.64516,34.88742 c 8.15264,-4.04956 10.43733,-15.27074 4.33225,-21.27773 -4.61657,-4.54241 -6.71342,-5.03322 -23.17741,-5.42514 -15,-0.35707 -15,-0.35707 -15,14.19036 0,14.54743 0,14.54743 15.4,14.28626 13.15217,-0.22305 15.84448,-0.48195 18.44516,-1.77375 z m -3.487,-46.405572 c 1.517,-0.54804 3.857,-2.354064 5.2,-4.013392 2.14788,-2.653782 2.44184,-3.626954 2.44184,-8.084049 0,-5.474675 -1.21166,-7.925318 -5.5054,-11.134976 -2.01486,-1.506146 -3.52209,-1.671017 -17.35057,-1.89792 C 316.8,60.703023 316.8,60.703023 316.8,73.951511 316.8,87.2 316.8,87.2 330.6,87.139136 c 8.85488,-0.03904 14.78836,-0.41792 16.55816,-1.057288 z m 47.24183,67.863072 c 0,-0.39079 29.85484,-74.271826 41.761,-103.34492 4.01334,-9.8 4.01334,-9.8 17.39254,-9.8 13.37919,0 13.37919,0 35.63874,56.2 12.24276,30.91 22.40414,56.47 22.58085,56.8 0.17671,0.33 -5.72994,0.59657 -13.12591,0.59237 -13.44722,-0.008 -13.44722,-0.008 -29.44722,-43.18805 -8.8,-23.749224 -16.18157,-43.185792 -16.4035,-43.192366 -0.4535,-0.01344 -18.36187,46.395206 -27.23882,70.588046 -5.79742,15.8 -5.79742,15.8 -18.47755,15.8 -6.97407,0 -12.68013,-0.20478 -12.68013,-0.45508 z M 628.79999,97.6 c 0,-56.8 0,-56.8 41.6,-56.8 41.6,0 41.6,0 41.6,10.4 0,10.4 0,10.4 -29.2,10.4 -29.2,0 -29.2,0 -29.2,36.4 0,36.4 0,36.4 30,36.4 30,0 30,0 30,10 0,10 0,10 -42.4,10 -42.4,0 -42.4,0 -42.4,-56.8 z m 41.86037,8.6 c 0.23861,-0.99 0.87333,-5.49 1.41052,-10 0.97669,-8.2 0.97669,-8.2 17.6529,-8.2 16.67621,0 16.67621,0 16.67621,10 0,10 0,10 -18.08673,10 -18.08672,0 -18.08672,0 -17.6529,-1.8 z"
         id="path195" />
    </g>
  </g>
</svg>
