<?xml version="1.0" standalone="no"?><!DOCTYPE svg PUBLIC "-//W3C//DTD SVG 1.1//EN" "http://www.w3.org/Graphics/SVG/1.1/DTD/svg11.dtd"><svg t="1694685392883" class="icon" viewBox="0 0 1024 1024" version="1.1" xmlns="http://www.w3.org/2000/svg" p-id="1560" xmlns:xlink="http://www.w3.org/1999/xlink" width="200" height="200"><path d="M465.65142823 620.22246672V882.78857422h92.69714354V620.22246672z" fill="#434A54" p-id="1561"></path><path d="M403.84560776 141.21142578h216.30878448v247.18852044H403.84560776z" fill="#E6E9ED" p-id="1562"></path><path d="M573.80582046 697.39428711c0 17.06351637-13.84953261 30.91449738-30.91449737 30.91449738h-61.78264618c-17.06351637 0-30.91449738-13.84953261-30.91449737-30.91449738v-108.13121796c0-17.06351637 13.84953261-30.91449738 30.91449737-30.91449737h61.78264618c17.06351637 0 30.91449738 13.84953261 30.91449737 30.91449737V697.39428711z" fill="#37BC9B" p-id="1563"></path><path d="M666.50296402 604.78694391c0 17.06351637-13.84953261 30.8681488-30.91449737 30.8681488H388.41153335c-17.06351637 0-30.91449738-13.80463243-30.91449737-30.8681488V295.70280266h309.00592804v309.08414125z" fill="#48CFAD" p-id="1564"></path><path d="M481.10867691 203.00565911h-30.91449737c-8.53248239 0-15.43407441 6.92476629-15.43407441 15.45724868S441.66314554 233.90856933 450.19417954 233.90856933h30.91449737c8.53248239 0 15.43407441-6.91317916 15.43407441-15.44566154s-6.90304041-15.45724868-15.43407441-15.45724868zM573.80582046 203.00565911h-30.91449737c-8.53248239 0-15.43407441 6.92476629-15.43407441 15.45724868S534.36028909 233.90856933 542.89132309 233.90856933h30.91449737c8.53248239 0 15.43407441-6.91317916 15.43407441-15.44566154s-6.90304041-15.45724868-15.43407441-15.45724868z" fill="#CCD1D9" p-id="1565"></path><path d="M573.85072064 512.54314733l-0.04490018-54.63193059C573.78264618 449.39032149 566.88105417 442.47714234 558.34857177 442.47714234s-15.45724868 6.91317916-15.45724868 15.44566154v0.01158714l0.04490018 38.0768001-27.20226645 18.116498 4.84342575-7.26513863-39.51360585-26.30860805 0.04490019-38.06521297V442.47714234c0-8.53248239-6.92476629-15.44566155-15.45724869-15.44566155s-15.43407441 6.90304041-15.45724868 15.4340744l-0.02317429 54.63193059 53.27333807 35.48562527 3.41675878-5.1374495 13.71483207 20.58311105 53.27478647-35.48562527z" fill="#E6E9ED" p-id="1566"></path><path d="M538.36509538 385.20913673l-15.4340744-15.4572487c-2.80698538-2.79539824-6.65391683-4.52622772-10.93102098-4.5262277s-8.1240356 1.73082948-10.93102098 4.5262277l-15.43407439 15.4572487a15.34427405 15.34427405 0 0 0-4.52622772 10.91943382c0 8.53248239 6.90304041 15.44566155 15.43407441 15.44566155v154.51455116c0 8.5093081 6.92476629 15.43407441 15.45724868 15.4340744s15.45724868-6.92476629 15.45724868-15.4340744v-154.51455116c8.53248239 0 15.43407441-6.91317916 15.43407441-15.44566155 0-4.265517-1.71924234-8.1240356-4.52622771-10.91943382z" fill="#F5F7FA" p-id="1567"></path><path d="M465.65142823 666.47978974c0-8.5093081-6.92476629-15.43407441-15.45724869-15.43407441v30.91449738c8.53248239 0 15.45724868-6.9262147 15.45724869-15.48042297zM558.34857177 666.47978974c0 8.55420828 6.92476629 15.48042297 15.45724869 15.48042296V651.04571533c-8.53248239 0-15.45724868 6.92476629-15.45724869 15.43407441z" p-id="1568"></path></svg>